<?xml version="1.0" encoding="utf-8"?><svg xmlns="http://www.w3.org/2000/svg" xmlns:xlink="http://www.w3.org/1999/xlink" width="1536" height="722" preserveAspectRatio="xMidYMid" viewBox="0 0 1536 722" style="z-index:1;margin-right:-2px;display:block;background-repeat-y:initial;background-repeat-x:initial;background-color:rgb(255, 255, 255);animation-play-state:paused" ><g transform="translate(768,361) scale(1,1) translate(-768,-361)" style="transform:matrix(1, 0, 0, 1, 0, 0);animation-play-state:paused" ><linearGradient id="lg-0.5221464667248292" x1="0" x2="1" y1="0" y2="0" style="animation-play-state:paused" ><stop stop-color="#ff00ff" offset="0" style="animation-play-state:paused" ></stop>

  
<stop stop-color="#00ffff" offset="1" style="animation-play-state:paused" ></stop></linearGradient>
<path d="M 1369.8 361 C 1369.8 533.4 1083.6 773.2 919.2 826.4 C 754.8 879.6 405 838.6 303.6 698.8 C 202.2 559 155 128.6 256.4 -11.2 C 357.8 -151 726 -69.6 890.4 -16.4 C 1054.8 36.8 1369.8 188.6 1369.8 361" fill="url(#lg-0.5221464667248292)" opacity="0.4" style="opacity:0.4;animation-play-state:paused" ></path>
<path d="M 1353 361 C 1353 538 1093.8 789.4 925 844 C 756.2 898.6 402.6 845.8 298.4 702.2 C 194.2 558.6 181 153.8 285.2 10.2 C 389.4 -133.4 755.6 -175 924.4 -120.4 C 1093.2 -65.8 1353 184 1353 361" fill="url(#lg-0.5221464667248292)" opacity="0.4" style="opacity:0.4;animation-play-state:paused" ></path>
<path d="M 1418.4 361 C 1418.4 526.2 1072.4 763.6 915.4 814.8 C 758.4 866 466.2 783.8 369.6 650.2 C 273 516.6 279.6 209.8 377 76.4 C 474.4 -57 757.6 -142 914.6 -90.8 C 1071.6 -39.6 1418.4 195.8 1418.4 361" fill="url(#lg-0.5221464667248292)" opacity="0.4" style="opacity:0.4;animation-play-state:paused" ></path>
<path d="M 1344.4 361 C 1344.4 525.8 1038.4 659.4 881.8 710.2 C 725.2 761 399.2 831.6 302.6 698.4 C 206 565.2 280.8 210.6 377.4 77.4 C 474 -55.8 729.6 -53.4 886.2 -2.6 C 1042.8 48.2 1344.4 196.2 1344.4 361" fill="url(#lg-0.5221464667248292)" opacity="0.4" style="opacity:0.4;animation-play-state:paused" ></path>
<path d="M 1418.8 361 C 1418.8 544.6 1091 761.8 916.4 818.4 C 741.8 875 372.2 875.8 264.2 727 C 156.2 578.2 182.6 163 290.6 14.2 C 398.6 -134.6 765 -224.8 939.6 -168.2 C 1114.2 -111.6 1418.8 177.4 1418.8 361" fill="url(#lg-0.5221464667248292)" opacity="0.4" style="opacity:0.4;animation-play-state:paused" ></path></g></svg>